<svg width="266" height="260" viewBox="0 0 266 260" fill="none" xmlns="http://www.w3.org/2000/svg">
<circle cx="132.936" cy="19.2192" r="19.2192" transform="rotate(90 132.936 19.2192)" fill="#FAFAFA"/>
<circle cx="132.936" cy="74.4761" r="19.2192" transform="rotate(90 132.936 74.4761)" fill="#FAFAFA"/>
<circle cx="132.936" cy="129.73" r="19.2192" transform="rotate(90 132.936 129.73)" fill="#FAFAFA"/>
<circle cx="132.936" cy="184.984" r="19.2192" transform="rotate(90 132.936 184.984)" fill="#FAFAFA"/>
<circle cx="132.936" cy="240.238" r="19.2192" transform="rotate(90 132.936 240.238)" fill="#FAFAFA"/>
<circle cx="188.193" cy="184.984" r="19.2192" transform="rotate(90 188.193 184.984)" fill="#FAFAFA"/>
<circle cx="19.2192" cy="19.2192" r="19.2192" transform="matrix(-4.37114e-08 1 1 4.37114e-08 58.4609 165.765)" fill="#FAFAFA"/>
<circle cx="245.852" cy="129.73" r="19.2192" transform="rotate(90 245.852 129.73)" fill="#FAFAFA"/>
<circle cx="19.2192" cy="19.2192" r="19.2192" transform="matrix(-4.37114e-08 1 1 4.37114e-08 0.807617 110.511)" fill="#FAFAFA"/>
</svg>
