<?xml version="1.0" encoding="UTF-8"?>
<svg version="1.1" xmlns="http://www.w3.org/2000/svg" width="266" height="260">
<path d="M0 0 C4.96760458 4.92096041 7.13805516 8.57004155 7.375 15.6875 C7.31154075 23.18475661 4.80435468 27.19564532 -0.375 32.375 C-5.68333938 35.66111486 -10.63414303 36.49567184 -16.7265625 35.6015625 C-22.21464349 34.14938987 -25.98125067 31.30608888 -29.4375 26.875 C-32.17596397 21.8362263 -32.52485664 17.62346404 -32 12 C-30.00347282 6.01041845 -27.53245771 1.477267 -22 -1.75 C-14.48807497 -4.87996876 -6.92777115 -4.6185141 0 0 Z " fill="#F9F9F9" transform="translate(90,169)"/>
<path d="M0 0 C5.09428044 3.66470508 7.69715634 8.02689426 8.75390625 14.26171875 C8.96016437 20.98330685 7.10718407 26.13065529 2.75390625 31.26171875 C-3.40525571 36.06586508 -8.61552391 37.04405058 -16.24609375 36.26171875 C-22.2231164 34.61252269 -25.5724195 31.20700817 -29.1171875 26.26171875 C-31.48283964 22.07066721 -31.63583412 18.01655128 -31.24609375 13.26171875 C-29.01491131 5.82869383 -25.67607424 1.84587404 -18.99609375 -2.05078125 C-12.26796335 -3.73281385 -6.0699786 -3.49483617 0 0 Z " fill="#F9F9F9" transform="translate(144.24609375,57.73828125)"/>
<path d="M0 0 C4.35912879 4.12970096 6.86009194 9.51844184 7.1015625 15.52734375 C6.7050654 21.80521447 5.13944568 25.97561254 0.5078125 30.4375 C-4.78327462 35.07049171 -9.11279215 35.4052575 -15.91796875 35.34765625 C-21.78981915 34.68530557 -25.31165617 31.68834383 -29.375 27.625 C-32.62333061 22.3776967 -33.54063471 17.38369846 -32.671875 11.34375 C-31.11027768 5.89631748 -27.85020622 1.40968093 -23.375 -2 C-15.05604834 -5.50271649 -7.66290993 -4.61894768 0 0 Z " fill="#F9F9F9" transform="translate(33,114)"/>
<path d="M0 0 C5.3928205 2.86902813 8.89319088 7.05465446 11.20703125 12.62890625 C12.4299767 19.84428438 11.53646713 25.4999039 7.36328125 31.58984375 C3.40951842 36.04791306 -1.93370584 38.12379738 -7.79296875 38.62890625 C-13.41647711 38.53569893 -18.46697076 36.59127592 -22.77734375 32.9609375 C-26.56047556 28.81061936 -28.12834963 24.4314597 -28.19921875 18.859375 C-27.81954752 12.52835723 -26.35820262 8.38972055 -21.67578125 3.87890625 C-15.63716018 -1.40864255 -7.69354054 -2.42589116 0 0 Z " fill="#FAFAFA" transform="translate(141.16796875,221.68359375)"/>
<path d="M0 0 C4.56454261 3.37695365 6.70725097 7.04353169 8.125 12.5 C9.12221399 19.48049796 7.19440834 24.75146686 3.125 30.5 C-1.06758123 34.49206648 -5.83085126 36.31423217 -11.58203125 36.62109375 C-18.11728871 36.2759609 -22.47292068 34.37822259 -26.875 29.5 C-31.65967077 23.65206906 -31.38871567 17.79863965 -30.875 10.5 C-29.13923853 4.98640473 -25.51995729 1.73345087 -20.875 -1.5 C-14.00397537 -5.01185703 -6.47781254 -3.84186576 0 0 Z " fill="#FAFAFA" transform="translate(199.875,168.5)"/>
<path d="M0 0 C5.3928205 2.86902813 8.89319088 7.05465446 11.20703125 12.62890625 C12.4299767 19.84428438 11.53646713 25.4999039 7.36328125 31.58984375 C3.40951842 36.04791306 -1.93370584 38.12379738 -7.79296875 38.62890625 C-13.41647711 38.53569893 -18.46697076 36.59127592 -22.77734375 32.9609375 C-26.56047556 28.81061936 -28.12834963 24.4314597 -28.19921875 18.859375 C-27.81954752 12.52835723 -26.35820262 8.38972055 -21.67578125 3.87890625 C-15.63716018 -1.40864255 -7.69354054 -2.42589116 0 0 Z " fill="#F9F9F9" transform="translate(141.16796875,0.68359375)"/>
<path d="M0 0 C5.2276678 4.49822578 8.5155539 8.39801803 9.6875 15.3125 C9.77243108 21.38507207 8.67703841 25.56818406 4.6875 30.3125 C0.26093411 34.54660651 -3.4377974 37.26185029 -9.703125 37.34375 C-16.99723437 36.90697698 -20.97310211 34.75823415 -26.0625 29.4375 C-30.1127822 23.81210805 -30.7276145 19.45337782 -29.84765625 12.70703125 C-28.47558502 6.56776361 -24.25035782 2.86775763 -19.3125 -0.6875 C-13.02385988 -3.83182006 -6.14530497 -3.13062706 0 0 Z " fill="#F9F9F9" transform="translate(143.3125,167.6875)"/>
<path d="M0 0 C5.59506586 4.83210233 8.47547873 9.30183743 9.0625 16.6640625 C8.88378579 23.34350619 5.60144507 28.39855493 1 33 C-4.40769833 36.95685244 -10.56396776 36.76990171 -17 36 C-22.41153299 34.26478018 -25.82955539 30.52920659 -29 26 C-31.63654883 20.72690235 -31.33627664 15.62277443 -30 10 C-27.60645837 4.40868676 -24.42333332 0.88475176 -19 -2 C-12.54436637 -4.58225345 -5.87836037 -3.21646133 0 0 Z " fill="#F9F9F9" transform="translate(144,113)"/>
<path d="M0 0 C4.92324589 2.71046508 7.62452517 5.81543056 9.75 11 C11.5649772 17.77591486 10.23605013 23.08505552 7.125 29.1875 C3.3079484 33.70769269 -0.23969163 36.58124319 -6.2265625 37.4140625 C-11.86915323 37.56807862 -16.57832521 37.44814091 -21.25 34 C-26.33615011 29.13498685 -28.82324881 24.76963554 -29.625 17.6875 C-29.04536594 11.98776509 -27.51157908 7.17967078 -23.30859375 3.12890625 C-15.85491328 -2.59519091 -8.74509381 -3.89542295 0 0 Z " fill="#F9F9F9" transform="translate(255.25,112)"/>
</svg>
